# xmcd
#
# Track frame offsets:
#	150
#	16364
#	30004
#	45250
#	63243
#	81654
#	100459
#	120852
#	135996
#	149981
#	167162
#	183287
#	198003
#	213867
#	229869
#	245041
#	257498
#	275404
#	287911
#
# Disc length: 4027 seconds
#
# Revision: 1
# Processed by: cddbd v1.5.2PL0 Copyright (c) Steve Scherf et al.
# Submitted via: audiograbber 1.83.01
#
DISCID=080fb913
DTITLE=Various Artist - Hott Country 184
DYEAR=2011
DGENRE=Country
TTITLE0=Lady Antebellum - Just A Kiss
TTITLE1=Thompson Square - I Got You
TTITLE2=Big and Rich - Fake ID
TTITLE3=Kenny Chesney Feat Grace Potter - You And Tequila
TTITLE4=Scotty McCreery - I Love This Big
TTITLE5=Lauren Alaina - Like My Mother Does
TTITLE6=Brad Paisley Feat Carrie Underwood - Remind Me
TTITLE7=Sunny Sweeney - Stayings Worse Than Leaving
TTITLE8=One More Girl - Fall Like That
TTITLE9=Chad Brownley - Carried Away
TTITLE10=Jennette McCurdy - Generation Love
TTITLE11=Joe Nichols - Take It Off
TTITLE12=Brantley Gilbert - Country Must Be Country Wide
TTITLE13=Jake Matthews - Forever's On Our Side
TTITLE14=Darius Rucker - I Got Nothing
TTITLE15=Kellie Pickler - Tough ( Single )
TTITLE16=Aaron Pritchett - Drive
TTITLE17=Jerrod Niemann - One More Drinkin' Song
TTITLE18=Glen Campbell - Whichita Lineman ( 1968 )
EXTD=June 2011
EXTT0=
EXTT1=
EXTT2=
EXTT3=
EXTT4=
EXTT5=
EXTT6=
EXTT7=
EXTT8=
EXTT9=
EXTT10=
EXTT11=
EXTT12=
EXTT13=
EXTT14=
EXTT15=
EXTT16=
EXTT17=
EXTT18=
PLAYORDER=
